<svg xmlns="http://www.w3.org/2000/svg" viewBox="0 0 64 64" fill="none">
  <!-- Shield -->
  <path d="M32 4L8 16v16c0 14.4 10.24 27.84 24 32 13.76-4.16 24-17.6 24-32V16L32 4z" fill="#0F1B2D" stroke="#C5A54E" stroke-width="3"/>
  <!-- Scale beam -->
  <line x1="32" y1="18" x2="32" y2="42" stroke="#C5A54E" stroke-width="2.5" stroke-linecap="round"/>
  <line x1="20" y1="26" x2="44" y2="26" stroke="#C5A54E" stroke-width="2.5" stroke-linecap="round"/>
  <!-- Left pan -->
  <line x1="20" y1="26" x2="16" y2="36" stroke="#C5A54E" stroke-width="2" stroke-linecap="round"/>
  <line x1="20" y1="26" x2="24" y2="36" stroke="#C5A54E" stroke-width="2" stroke-linecap="round"/>
  <path d="M14 36 Q20 40 26 36" stroke="#C5A54E" stroke-width="2" fill="none" stroke-linecap="round"/>
  <!-- Right pan -->
  <line x1="44" y1="26" x2="40" y2="36" stroke="#C5A54E" stroke-width="2" stroke-linecap="round"/>
  <line x1="44" y1="26" x2="48" y2="36" stroke="#C5A54E" stroke-width="2" stroke-linecap="round"/>
  <path d="M38 36 Q44 40 50 36" stroke="#C5A54E" stroke-width="2" fill="none" stroke-linecap="round"/>
  <!-- Base -->
  <line x1="26" y1="42" x2="38" y2="42" stroke="#C5A54E" stroke-width="2.5" stroke-linecap="round"/>
</svg>
